<svg width="1526" height="440" viewBox="0 0 1526 440" fill="none" xmlns="http://www.w3.org/2000/svg">
<path d="M100 177C100 204.614 77.6142 227 50 227C22.3858 227 0 204.614 0 177C0 149.386 22.3858 127 50 127C77.6142 127 100 149.386 100 177ZM25 177C25 190.807 36.1929 202 50 202C63.8071 202 75 190.807 75 177C75 163.193 63.8071 152 50 152C36.1929 152 25 163.193 25 177Z" fill="#9622E3"/>
<path d="M364 390C364 417.614 341.614 440 314 440C286.386 440 264 417.614 264 390C264 362.386 286.386 340 314 340C341.614 340 364 362.386 364 390ZM289 390C289 403.807 300.193 415 314 415C327.807 415 339 403.807 339 390C339 376.193 327.807 365 314 365C300.193 365 289 376.193 289 390Z" fill="#9622E3"/>
<path d="M210 50C210 77.6142 187.614 100 160 100C132.386 100 110 77.6142 110 50C110 22.3858 132.386 0 160 0C187.614 0 210 22.3858 210 50ZM135 50C135 63.8071 146.193 75 160 75C173.807 75 185 63.8071 185 50C185 36.1929 173.807 25 160 25C146.193 25 135 36.1929 135 50Z" fill="#9622E3"/>
<path d="M256 248.5C256 277.495 232.495 301 203.5 301C174.505 301 151 277.495 151 248.5C151 219.505 174.505 196 203.5 196C232.495 196 256 219.505 256 248.5ZM177.25 248.5C177.25 262.997 189.003 274.75 203.5 274.75C217.997 274.75 229.75 262.997 229.75 248.5C229.75 234.003 217.997 222.25 203.5 222.25C189.003 222.25 177.25 234.003 177.25 248.5Z" fill="#9622E3"/>
<path d="M97.1922 436.167C106.322 432.473 114.228 426.285 120.008 418.312C125.788 410.338 129.208 400.899 129.878 391.073C130.549 381.248 128.442 371.432 123.798 362.747C119.155 354.062 112.162 346.858 103.619 341.958C95.0759 337.059 85.327 334.661 75.4858 335.039C65.6447 335.416 56.1083 338.555 47.966 344.095C39.8238 349.635 33.404 357.354 29.4402 366.369C25.4763 375.385 24.1282 385.333 25.5499 395.079L48.4466 391.738C47.6516 386.288 48.4055 380.725 50.6223 375.683C52.8391 370.641 56.4294 366.324 60.983 363.226C65.5366 360.127 70.8699 358.372 76.3736 358.161C81.8773 357.949 87.3294 359.29 92.1072 362.031C96.885 364.771 100.796 368.799 103.393 373.657C105.989 378.514 107.168 384.003 106.793 389.498C106.418 394.993 104.505 400.272 101.273 404.732C98.0402 409.191 93.6186 412.651 88.513 414.717L97.1922 436.167Z" fill="#9622E3"/>
<path d="M77.5 440C68.2377 440 59.1402 437.55 51.131 432.897C43.1218 428.245 36.4859 421.557 31.8968 413.511L51.9962 402.047C54.5626 406.547 58.2738 410.287 62.753 412.889C67.2322 415.49 72.32 416.861 77.5 416.861L77.5 440Z" fill="#9622E3"/>
<path d="M371 132C371 159.614 348.614 182 321 182C293.386 182 271 159.614 271 132C271 104.386 293.386 82 321 82C348.614 82 371 104.386 371 132ZM296 132C296 145.807 307.193 157 321 157C334.807 157 346 145.807 346 132C346 118.193 334.807 107 321 107C307.193 107 296 118.193 296 132Z" fill="#9622E3"/>
<path d="M475 233C475 260.614 452.614 283 425 283C397.386 283 375 260.614 375 233C375 205.386 397.386 183 425 183C452.614 183 475 205.386 475 233ZM400 233C400 246.807 411.193 258 425 258C438.807 258 450 246.807 450 233C450 219.193 438.807 208 425 208C411.193 208 400 219.193 400 233Z" fill="#9622E3"/>
<line x1="204.046" y1="67.3663" x2="281.046" y2="112.366" stroke="#9622E3" stroke-width="20"/>
<line x1="354.892" y1="163.754" x2="395.892" y2="202.754" stroke="#9622E3" stroke-width="20"/>
<line x1="400.17" y1="274.767" x2="340.17" y2="359.767" stroke="#9622E3" stroke-width="20"/>
<line x1="289.854" y1="168.282" x2="238.854" y2="216.282" stroke="#9622E3" stroke-width="20"/>
<line x1="137.48" y1="75.6371" x2="74.4799" y2="146.637" stroke="#9622E3" stroke-width="20"/>
<line x1="92.5287" y1="198.084" x2="155.529" y2="230.084" stroke="#9622E3" stroke-width="20"/>
<line x1="54.9078" y1="221.645" x2="70.9078" y2="338.645" stroke="#9622E3" stroke-width="20"/>
<line x1="173.395" y1="284.731" x2="102.395" y2="362.731" stroke="#9622E3" stroke-width="20"/>
<line x1="119.934" y1="392" x2="270.934" y2="391" stroke="#9622E3" stroke-width="20"/>
<line x1="219.783" y1="269.721" x2="290.783" y2="357.721" stroke="#9622E3" stroke-width="20"/>
<path d="M627.175 232.9C621.342 225.083 615.042 219.658 608.275 216.625C601.508 213.475 593.925 211.9 585.525 211.9C569.075 211.9 556.417 217.792 547.55 229.575C538.683 241.358 534.25 258.158 534.25 279.975C534.25 291.525 535.242 301.442 537.225 309.725C539.208 317.892 542.125 324.658 545.975 330.025C549.825 335.275 554.55 339.125 560.15 341.575C565.75 344.025 572.108 345.25 579.225 345.25C589.492 345.25 598.417 342.917 606 338.25C613.7 333.583 620.758 326.992 627.175 318.475V232.9ZM658.325 110.225V368H639.775C635.342 368 632.542 365.842 631.375 361.525L628.575 340C620.992 349.1 612.358 356.45 602.675 362.05C592.992 367.65 581.792 370.45 569.075 370.45C558.925 370.45 549.708 368.525 541.425 364.675C533.142 360.708 526.083 354.933 520.25 347.35C514.417 339.767 509.925 330.317 506.775 319C503.625 307.683 502.05 294.675 502.05 279.975C502.05 266.908 503.8 254.775 507.3 243.575C510.8 232.258 515.817 222.458 522.35 214.175C528.883 205.892 536.875 199.417 546.325 194.75C555.892 189.967 566.625 187.575 578.525 187.575C589.375 187.575 598.65 189.442 606.35 193.175C614.167 196.792 621.108 201.867 627.175 208.4V110.225H658.325ZM826.175 260.025C826.175 252.792 825.125 246.2 823.025 240.25C821.041 234.183 818.066 228.992 814.1 224.675C810.25 220.242 805.525 216.858 799.925 214.525C794.325 212.075 787.966 210.85 780.85 210.85C765.916 210.85 754.075 215.225 745.325 223.975C736.691 232.608 731.325 244.625 729.225 260.025H826.175ZM851.375 343.15C847.525 347.817 842.916 351.9 837.55 355.4C832.183 358.783 826.408 361.583 820.225 363.8C814.158 366.017 807.858 367.65 801.325 368.7C794.791 369.867 788.316 370.45 781.9 370.45C769.65 370.45 758.333 368.408 747.95 364.325C737.683 360.125 728.758 354.058 721.175 346.125C713.708 338.075 707.875 328.158 703.675 316.375C699.475 304.592 697.375 291.058 697.375 275.775C697.375 263.408 699.241 251.858 702.975 241.125C706.825 230.392 712.308 221.117 719.425 213.3C726.541 205.367 735.233 199.183 745.5 194.75C755.766 190.2 767.316 187.925 780.15 187.925C790.766 187.925 800.566 189.733 809.55 193.35C818.65 196.85 826.466 201.983 833 208.75C839.65 215.4 844.841 223.683 848.575 233.6C852.308 243.4 854.175 254.6 854.175 267.2C854.175 272.1 853.65 275.367 852.6 277C851.55 278.633 849.566 279.45 846.65 279.45H728.175C728.525 290.65 730.041 300.392 732.725 308.675C735.525 316.958 739.375 323.9 744.275 329.5C749.175 334.983 755.008 339.125 761.775 341.925C768.541 344.608 776.125 345.95 784.525 345.95C792.341 345.95 799.05 345.075 804.65 343.325C810.366 341.458 815.266 339.475 819.35 337.375C823.433 335.275 826.816 333.35 829.5 331.6C832.3 329.733 834.691 328.8 836.675 328.8C839.241 328.8 841.225 329.792 842.625 331.775L851.375 343.15ZM923.762 325.3C929.478 333 935.72 338.425 942.487 341.575C949.253 344.725 956.837 346.3 965.237 346.3C981.803 346.3 994.52 340.408 1003.39 328.625C1012.25 316.842 1016.69 300.042 1016.69 278.225C1016.69 266.675 1015.64 256.758 1013.54 248.475C1011.55 240.192 1008.64 233.425 1004.79 228.175C1000.94 222.808 996.212 218.9 990.612 216.45C985.012 214 978.653 212.775 971.537 212.775C961.387 212.775 952.462 215.108 944.762 219.775C937.178 224.442 930.178 231.033 923.762 239.55V325.3ZM922.187 218.2C929.653 208.983 938.287 201.575 948.087 195.975C957.887 190.375 969.087 187.575 981.687 187.575C991.953 187.575 1001.23 189.558 1009.51 193.525C1017.8 197.375 1024.85 203.15 1030.69 210.85C1036.52 218.433 1041.01 227.883 1044.16 239.2C1047.31 250.517 1048.89 263.525 1048.89 278.225C1048.89 291.292 1047.14 303.483 1043.64 314.8C1040.14 326 1035.06 335.742 1028.41 344.025C1021.88 352.192 1013.83 358.667 1004.26 363.45C994.812 368.117 984.137 370.45 972.237 370.45C961.387 370.45 952.053 368.642 944.237 365.025C936.537 361.292 929.712 356.158 923.762 349.625V428.025H892.437V190.725H911.162C915.595 190.725 918.337 192.883 919.387 197.2L922.187 218.2ZM1121.53 190.725V368H1090.38V190.725H1121.53ZM1128.18 135.075C1128.18 138.108 1127.54 140.967 1126.25 143.65C1125.09 146.217 1123.45 148.55 1121.35 150.65C1119.37 152.633 1116.98 154.208 1114.18 155.375C1111.49 156.542 1108.64 157.125 1105.6 157.125C1102.57 157.125 1099.71 156.542 1097.03 155.375C1094.46 154.208 1092.19 152.633 1090.2 150.65C1088.22 148.55 1086.64 146.217 1085.48 143.65C1084.31 140.967 1083.73 138.108 1083.73 135.075C1083.73 132.042 1084.31 129.183 1085.48 126.5C1086.64 123.7 1088.22 121.308 1090.2 119.325C1092.19 117.225 1094.46 115.592 1097.03 114.425C1099.71 113.258 1102.57 112.675 1105.6 112.675C1108.64 112.675 1111.49 113.258 1114.18 114.425C1116.98 115.592 1119.37 117.225 1121.35 119.325C1123.45 121.308 1125.09 123.7 1126.25 126.5C1127.54 129.183 1128.18 132.042 1128.18 135.075ZM1202.11 216.45C1205.96 212.133 1210.04 208.225 1214.36 204.725C1218.68 201.225 1223.23 198.25 1228.01 195.8C1232.91 193.233 1238.04 191.308 1243.41 190.025C1248.89 188.625 1254.79 187.925 1261.09 187.925C1270.77 187.925 1279.29 189.558 1286.64 192.825C1294.1 195.975 1300.29 200.525 1305.19 206.475C1310.2 212.308 1313.99 219.367 1316.56 227.65C1319.13 235.933 1320.41 245.092 1320.41 255.125V368H1289.09V255.125C1289.09 241.708 1285.99 231.325 1279.81 223.975C1273.74 216.508 1264.47 212.775 1251.99 212.775C1242.77 212.775 1234.14 214.992 1226.09 219.425C1218.15 223.858 1210.8 229.867 1204.04 237.45V368H1172.71V190.725H1191.44C1195.87 190.725 1198.61 192.883 1199.66 197.2L1202.11 216.45ZM1429.65 281.375C1435.95 281.375 1441.49 280.5 1446.28 278.75C1451.06 277 1455.08 274.55 1458.35 271.4C1461.62 268.25 1464.07 264.517 1465.7 260.2C1467.33 255.767 1468.15 250.925 1468.15 245.675C1468.15 234.825 1464.83 226.192 1458.18 219.775C1451.64 213.358 1442.13 210.15 1429.65 210.15C1417.05 210.15 1407.43 213.358 1400.78 219.775C1394.24 226.192 1390.98 234.825 1390.98 245.675C1390.98 250.925 1391.79 255.767 1393.43 260.2C1395.18 264.517 1397.68 268.25 1400.95 271.4C1404.22 274.55 1408.24 277 1413.03 278.75C1417.81 280.5 1423.35 281.375 1429.65 281.375ZM1485.83 377.625C1485.83 373.308 1484.6 369.808 1482.15 367.125C1479.7 364.442 1476.38 362.342 1472.18 360.825C1468.09 359.308 1463.31 358.258 1457.83 357.675C1452.34 356.975 1446.51 356.45 1440.33 356.1C1434.26 355.75 1428.08 355.4 1421.78 355.05C1415.48 354.7 1409.41 354.117 1403.58 353.3C1397.04 356.333 1391.68 360.183 1387.48 364.85C1383.39 369.4 1381.35 374.767 1381.35 380.95C1381.35 384.917 1382.34 388.592 1384.33 391.975C1386.43 395.475 1389.58 398.45 1393.78 400.9C1397.98 403.467 1403.23 405.45 1409.53 406.85C1415.94 408.367 1423.47 409.125 1432.1 409.125C1440.5 409.125 1448.03 408.367 1454.68 406.85C1461.33 405.333 1466.93 403.175 1471.48 400.375C1476.14 397.575 1479.7 394.25 1482.15 390.4C1484.6 386.55 1485.83 382.292 1485.83 377.625ZM1517.5 197.725V209.275C1517.5 213.125 1515.05 215.575 1510.15 216.625L1490.03 219.25C1493.99 226.95 1495.98 235.467 1495.98 244.8C1495.98 253.433 1494.28 261.308 1490.9 268.425C1487.63 275.425 1483.08 281.433 1477.25 286.45C1471.42 291.467 1464.42 295.317 1456.25 298C1448.08 300.683 1439.22 302.025 1429.65 302.025C1421.37 302.025 1413.55 301.033 1406.2 299.05C1402.47 301.383 1399.61 303.892 1397.63 306.575C1395.64 309.142 1394.65 311.767 1394.65 314.45C1394.65 318.65 1396.34 321.858 1399.73 324.075C1403.23 326.175 1407.78 327.692 1413.38 328.625C1418.98 329.558 1425.33 330.142 1432.45 330.375C1439.68 330.608 1447.03 331.017 1454.5 331.6C1462.08 332.067 1469.43 332.942 1476.55 334.225C1483.78 335.508 1490.2 337.608 1495.8 340.525C1501.4 343.442 1505.89 347.467 1509.28 352.6C1512.78 357.733 1514.53 364.383 1514.53 372.55C1514.53 380.133 1512.6 387.483 1508.75 394.6C1505.02 401.717 1499.59 408.017 1492.48 413.5C1485.36 419.1 1476.61 423.533 1466.23 426.8C1455.96 430.183 1444.35 431.875 1431.4 431.875C1418.45 431.875 1407.13 430.592 1397.45 428.025C1387.77 425.458 1379.72 422.017 1373.3 417.7C1366.88 413.383 1362.04 408.367 1358.78 402.65C1355.63 397.05 1354.05 391.158 1354.05 384.975C1354.05 376.225 1356.79 368.817 1362.28 362.75C1367.76 356.683 1375.28 351.842 1384.85 348.225C1379.6 345.892 1375.4 342.8 1372.25 338.95C1369.22 334.983 1367.7 329.675 1367.7 323.025C1367.7 320.458 1368.17 317.833 1369.1 315.15C1370.03 312.35 1371.43 309.608 1373.3 306.925C1375.28 304.125 1377.68 301.5 1380.48 299.05C1383.28 296.6 1386.54 294.442 1390.28 292.575C1381.53 287.675 1374.7 281.2 1369.8 273.15C1364.9 264.983 1362.45 255.533 1362.45 244.8C1362.45 236.167 1364.08 228.35 1367.35 221.35C1370.73 214.233 1375.4 208.225 1381.35 203.325C1387.3 198.308 1394.36 194.458 1402.53 191.775C1410.81 189.092 1419.85 187.75 1429.65 187.75C1437.35 187.75 1444.53 188.625 1451.18 190.375C1457.83 192.008 1463.89 194.458 1469.38 197.725H1517.5Z" fill="#9622E3"/>
</svg>
