<svg width="475" height="440" viewBox="0 0 475 440" fill="none" xmlns="http://www.w3.org/2000/svg">
<path d="M100 177C100 204.614 77.6142 227 50 227C22.3858 227 0 204.614 0 177C0 149.386 22.3858 127 50 127C77.6142 127 100 149.386 100 177ZM25 177C25 190.807 36.1929 202 50 202C63.8071 202 75 190.807 75 177C75 163.193 63.8071 152 50 152C36.1929 152 25 163.193 25 177Z" fill="#9622E3"/>
<path d="M364 390C364 417.614 341.614 440 314 440C286.386 440 264 417.614 264 390C264 362.386 286.386 340 314 340C341.614 340 364 362.386 364 390ZM289 390C289 403.807 300.193 415 314 415C327.807 415 339 403.807 339 390C339 376.193 327.807 365 314 365C300.193 365 289 376.193 289 390Z" fill="#9622E3"/>
<path d="M210 50C210 77.6142 187.614 100 160 100C132.386 100 110 77.6142 110 50C110 22.3858 132.386 0 160 0C187.614 0 210 22.3858 210 50ZM135 50C135 63.8071 146.193 75 160 75C173.807 75 185 63.8071 185 50C185 36.1929 173.807 25 160 25C146.193 25 135 36.1929 135 50Z" fill="#9622E3"/>
<path d="M256 248.5C256 277.495 232.495 301 203.5 301C174.505 301 151 277.495 151 248.5C151 219.505 174.505 196 203.5 196C232.495 196 256 219.505 256 248.5ZM177.25 248.5C177.25 262.997 189.003 274.75 203.5 274.75C217.997 274.75 229.75 262.997 229.75 248.5C229.75 234.003 217.997 222.25 203.5 222.25C189.003 222.25 177.25 234.003 177.25 248.5Z" fill="#9622E3"/>
<path d="M97.1922 436.167C106.322 432.473 114.228 426.285 120.008 418.312C125.788 410.338 129.208 400.899 129.878 391.073C130.549 381.248 128.442 371.432 123.798 362.747C119.155 354.062 112.162 346.858 103.619 341.958C95.0759 337.059 85.327 334.661 75.4858 335.039C65.6447 335.416 56.1083 338.555 47.966 344.095C39.8238 349.635 33.404 357.354 29.4402 366.369C25.4763 375.385 24.1282 385.333 25.5499 395.079L48.4466 391.738C47.6516 386.288 48.4055 380.725 50.6223 375.683C52.8391 370.641 56.4294 366.324 60.983 363.226C65.5366 360.127 70.8699 358.372 76.3736 358.161C81.8773 357.949 87.3294 359.29 92.1072 362.031C96.885 364.771 100.796 368.799 103.393 373.657C105.989 378.514 107.168 384.003 106.793 389.498C106.418 394.993 104.505 400.272 101.273 404.732C98.0402 409.191 93.6186 412.651 88.513 414.717L97.1922 436.167Z" fill="#9622E3"/>
<path d="M77.5 440C68.2377 440 59.1402 437.55 51.131 432.897C43.1218 428.245 36.4859 421.557 31.8968 413.511L51.9962 402.047C54.5626 406.547 58.2738 410.287 62.753 412.889C67.2322 415.49 72.32 416.861 77.5 416.861L77.5 440Z" fill="#9622E3"/>
<path d="M371 132C371 159.614 348.614 182 321 182C293.386 182 271 159.614 271 132C271 104.386 293.386 82 321 82C348.614 82 371 104.386 371 132ZM296 132C296 145.807 307.193 157 321 157C334.807 157 346 145.807 346 132C346 118.193 334.807 107 321 107C307.193 107 296 118.193 296 132Z" fill="#9622E3"/>
<path d="M475 233C475 260.614 452.614 283 425 283C397.386 283 375 260.614 375 233C375 205.386 397.386 183 425 183C452.614 183 475 205.386 475 233ZM400 233C400 246.807 411.193 258 425 258C438.807 258 450 246.807 450 233C450 219.193 438.807 208 425 208C411.193 208 400 219.193 400 233Z" fill="#9622E3"/>
<line x1="204.046" y1="67.3663" x2="281.046" y2="112.366" stroke="#9622E3" stroke-width="20"/>
<line x1="354.892" y1="163.754" x2="395.892" y2="202.754" stroke="#9622E3" stroke-width="20"/>
<line x1="400.17" y1="274.767" x2="340.17" y2="359.767" stroke="#9622E3" stroke-width="20"/>
<line x1="289.854" y1="168.282" x2="238.854" y2="216.282" stroke="#9622E3" stroke-width="20"/>
<line x1="137.48" y1="75.6371" x2="74.4799" y2="146.637" stroke="#9622E3" stroke-width="20"/>
<line x1="92.5287" y1="198.084" x2="155.529" y2="230.084" stroke="#9622E3" stroke-width="20"/>
<line x1="54.9078" y1="221.645" x2="70.9078" y2="338.645" stroke="#9622E3" stroke-width="20"/>
<line x1="173.395" y1="284.731" x2="102.395" y2="362.731" stroke="#9622E3" stroke-width="20"/>
<line x1="119.934" y1="392" x2="270.934" y2="391" stroke="#9622E3" stroke-width="20"/>
<line x1="219.783" y1="269.721" x2="290.783" y2="357.721" stroke="#9622E3" stroke-width="20"/>
</svg>
